<svg width="51" height="94" viewBox="0 0 51 94" fill="none" xmlns="http://www.w3.org/2000/svg">
<path d="M17.9895 94C15.7708 94 13.6375 93.7867 11.5895 93.36C9.5415 92.9333 7.70683 92.1653 6.0855 91.056C4.5495 89.9467 3.2695 88.4107 2.2455 86.448C1.30683 84.4853 0.8375 81.9253 0.8375 78.768V16.432C0.8375 13.5307 1.43483 11.0987 2.6295 9.13599C3.82417 7.08799 5.3175 5.50933 7.1095 4.39999C8.9015 3.20533 10.8642 2.35199 12.9975 1.84C15.2162 1.328 17.3068 1.072 19.2695 1.072V94H17.9895ZM20.5495 40.752H30.9175C30.9175 44.2507 30.2775 47.1947 28.9975 49.584C27.7175 51.888 25.1148 53.04 21.1895 53.04H20.5495V40.752ZM31.8135 22.448C31.8135 21.5093 31.7282 20.5707 31.5575 19.632C31.4722 18.608 31.2162 17.712 30.7895 16.944C30.4482 16.0907 29.8935 15.408 29.1255 14.896C28.4428 14.384 27.4615 14.128 26.1815 14.128C24.5602 14.128 23.1948 14.64 22.0855 15.664C21.5735 14.2987 21.3175 13.0613 21.3175 11.952C21.3175 10.5867 21.5308 9.264 21.9575 7.98399C22.4695 6.61866 23.2375 5.424 24.2615 4.39999C25.2855 3.376 26.5655 2.56533 28.1015 1.96799C29.7228 1.28533 31.6855 0.943993 33.9895 0.943993C36.5495 0.943993 38.8108 1.41333 40.7735 2.352C42.8215 3.20533 44.5282 4.44266 45.8935 6.064C47.2588 7.6 48.2828 9.43466 48.9655 11.568C49.7335 13.616 50.1175 15.8347 50.1175 18.224V94C47.8135 94 45.5522 93.8293 43.3335 93.488C41.2002 93.1467 39.2375 92.464 37.4455 91.44C35.7388 90.3307 34.3735 88.7093 33.3495 86.576C32.3255 84.4427 31.8135 81.584 31.8135 78V22.448Z" fill="black"/>
</svg>
