<svg width="48" height="94" viewBox="0 0 48 94" fill="none" xmlns="http://www.w3.org/2000/svg">
<path d="M19.2695 94H17.9895C15.7708 94 13.6375 93.7867 11.5895 93.36C9.5415 92.9333 7.70683 92.1653 6.0855 91.056C4.5495 89.9467 3.2695 88.4107 2.2455 86.448C1.30683 84.4853 0.8375 81.9253 0.8375 78.768V16.432C0.8375 13.36 1.30683 10.8427 2.2455 8.88C3.18417 6.91733 4.4215 5.38133 5.9575 4.272C7.4935 3.07733 9.24283 2.26666 11.2055 1.84C13.1682 1.328 15.1735 1.072 17.2215 1.072H19.2695V94ZM47.3015 81.712C47.3015 83.1627 47.0455 84.6133 46.5335 86.064C46.0215 87.5147 45.2108 88.8373 44.1015 90.032C42.9922 91.1413 41.6268 92.08 40.0055 92.848C38.3842 93.616 36.4642 94 34.2455 94C30.6615 94 27.6322 93.0187 25.1575 91.056C22.7682 89.008 21.5735 86.192 21.5735 82.608C21.5735 81.9253 21.5735 81.328 21.5735 80.816C21.6588 80.2187 21.8295 79.5787 22.0855 78.896C23.1948 79.92 24.5602 80.432 26.1815 80.432C27.4615 80.432 28.5282 80.048 29.3815 79.28C30.2348 78.4267 30.6615 77.1893 30.6615 75.568V69.296C31.3442 69.1253 32.1975 69.04 33.2215 69.04C34.4162 69.04 35.8242 69.2107 37.4455 69.552C39.0668 69.808 40.6028 70.4053 42.0535 71.344C43.5042 72.2827 44.7415 73.6053 45.7655 75.312C46.7895 76.9333 47.3015 79.0667 47.3015 81.712ZM47.3015 13.232C47.3015 15.9627 46.7895 18.1387 45.7655 19.76C44.7415 21.3813 43.5042 22.6613 42.0535 23.6C40.6028 24.5387 39.0668 25.1787 37.4455 25.52C35.8242 25.776 34.4162 25.904 33.2215 25.904C32.1975 25.904 31.3442 25.8187 30.6615 25.648V19.76C30.6615 18.224 30.2775 16.9867 29.5095 16.048C28.7415 15.024 27.6322 14.512 26.1815 14.512C24.5602 14.512 23.1948 15.024 22.0855 16.048C21.8295 15.3653 21.6588 14.768 21.5735 14.256C21.5735 13.6587 21.5735 13.0187 21.5735 12.336C21.5735 11.312 21.7442 10.16 22.0855 8.88C22.5122 7.51466 23.1948 6.27733 24.1335 5.168C25.0722 3.97333 26.3095 2.992 27.8455 2.224C29.4668 1.37066 31.5148 0.943993 33.9895 0.943993C35.7815 0.943993 37.4882 1.24266 39.1095 1.84C40.7308 2.43733 42.1388 3.29066 43.3335 4.39999C44.5282 5.50933 45.4668 6.832 46.1495 8.368C46.9175 9.81866 47.3015 11.44 47.3015 13.232Z" fill="black"/>
</svg>
