<svg width="47" height="66" viewBox="0 0 47 66" fill="none" xmlns="http://www.w3.org/2000/svg">
<path d="M18.0995 66H16.8195C14.8568 66 12.9368 65.7867 11.0595 65.36C9.18217 64.848 7.4755 64.0373 5.9395 62.928C4.48883 61.7333 3.29417 60.1973 2.3555 58.32C1.41683 56.4427 0.9475 54.1387 0.9475 51.408V16.976C0.9475 12.2827 2.05683 8.44266 4.2755 5.456C6.5795 2.46933 10.2915 0.975998 15.4115 0.975998C18.8248 0.975998 21.6408 1.872 23.8595 3.664C26.0782 5.37067 27.1875 8.144 27.1875 11.984C27.1875 13.264 27.0168 14.2027 26.6755 14.8C25.4808 13.776 24.2008 13.264 22.8355 13.264C20.9582 13.264 19.6782 13.904 18.9955 15.184C18.3982 16.464 18.0995 17.8293 18.0995 19.28V66ZM29.4915 1.104C29.9182 1.01866 30.3448 0.975998 30.7715 0.975998H32.0515C36.6595 0.975998 40.2435 2.17066 42.8035 4.56C45.3635 6.864 46.6435 10.192 46.6435 14.544V21.584C46.6435 27.3867 45.1928 31.696 42.2915 34.512C39.3902 37.328 35.8488 38.736 31.6675 38.736H30.7715C27.5288 38.5653 24.8835 37.4987 22.8355 35.536C20.8728 33.488 19.8915 31.056 19.8915 28.24C19.8915 27.8133 19.8915 27.4293 19.8915 27.088C19.9768 26.7467 20.1475 26.2347 20.4035 25.552C21.0862 26.2347 21.6835 26.7467 22.1955 27.088C22.7075 27.4293 23.5608 27.6 24.7555 27.6C26.7182 27.6 27.9982 26.9173 28.5955 25.552C29.1928 24.1013 29.4915 22.4373 29.4915 20.56V1.104ZM46.1315 53.584C46.1315 55.9733 45.7048 57.9787 44.8515 59.6C44.0835 61.136 43.0595 62.416 41.7795 63.44C40.4995 64.3787 39.0915 65.0613 37.5555 65.488C36.0195 65.8293 34.5262 66 33.0755 66C28.7235 66 25.6515 64.9333 23.8595 62.8C22.0675 60.6667 21.1715 58.2773 21.1715 55.632C21.1715 55.2053 21.1715 54.6933 21.1715 54.096C21.2568 53.4987 21.4702 52.8587 21.8115 52.176C22.9208 53.2 24.2008 53.712 25.6515 53.712C27.6995 53.5413 28.8942 52.8587 29.2355 51.664C29.5768 50.4693 29.7475 48.976 29.7475 47.184V42.448C31.0275 42.1067 32.5635 41.936 34.3555 41.936C36.5742 41.936 38.4088 42.2773 39.8595 42.96C41.3955 43.6427 42.6328 44.5387 43.5715 45.648C44.5102 46.7573 45.1502 48.0373 45.4915 49.488C45.9182 50.8533 46.1315 52.2187 46.1315 53.584Z" fill="black"/>
</svg>
