<svg width="48" height="94" viewBox="0 0 48 94" fill="none" xmlns="http://www.w3.org/2000/svg">
<path d="M19.2695 94H17.9895C15.7708 94 13.6375 93.7867 11.5895 93.36C9.5415 92.9333 7.70683 92.1653 6.0855 91.056C4.5495 89.9467 3.2695 88.4107 2.2455 86.448C1.30683 84.4853 0.8375 81.9253 0.8375 78.768V16.432C0.8375 13.36 1.30683 10.8427 2.2455 8.88C3.18417 6.91733 4.4215 5.38133 5.9575 4.272C7.4935 3.07733 9.24283 2.26666 11.2055 1.84C13.1682 1.328 15.1735 1.072 17.2215 1.072H19.2695V94ZM21.9575 40.752H33.3495C33.3495 42.7147 33.1788 44.5067 32.8375 46.128C32.5815 47.7493 32.0268 49.2 31.1735 50.48C30.4055 51.6747 29.3388 52.6133 27.9735 53.296C26.6082 53.9787 24.8588 54.32 22.7255 54.32H21.9575V40.752ZM47.3015 81.712C47.3015 83.1627 47.0455 84.6133 46.5335 86.064C46.0215 87.5147 45.2108 88.8373 44.1015 90.032C42.9922 91.1413 41.6268 92.08 40.0055 92.848C38.3842 93.616 36.4642 94 34.2455 94C32.6242 94 31.0455 93.744 29.5095 93.232C27.9735 92.6347 26.6082 91.824 25.4135 90.8C24.3042 89.776 23.3655 88.5813 22.5975 87.216C21.9148 85.8507 21.5735 84.3147 21.5735 82.608C21.5735 81.9253 21.5735 81.328 21.5735 80.816C21.6588 80.2187 21.8295 79.5787 22.0855 78.896C23.1948 79.92 24.5602 80.432 26.1815 80.432C27.4615 80.432 28.5282 80.048 29.3815 79.28C30.2348 78.4267 30.6615 77.1893 30.6615 75.568V69.296C31.3442 69.1253 32.1975 69.04 33.2215 69.04C34.4162 69.04 35.8242 69.2107 37.4455 69.552C39.0668 69.808 40.6028 70.4053 42.0535 71.344C43.5042 72.2827 44.7415 73.6053 45.7655 75.312C46.7895 76.9333 47.3015 79.0667 47.3015 81.712ZM47.3015 13.232C47.3015 15.9627 46.7895 18.1387 45.7655 19.76C44.7415 21.3813 43.5042 22.6613 42.0535 23.6C40.6028 24.5387 39.0668 25.1787 37.4455 25.52C35.8242 25.776 34.4162 25.904 33.2215 25.904C32.1975 25.904 31.3442 25.8187 30.6615 25.648V19.76C30.6615 18.0533 30.2348 16.7733 29.3815 15.92C28.6135 14.9813 27.5468 14.512 26.1815 14.512C24.5602 14.512 23.1948 15.024 22.0855 16.048C21.8295 15.3653 21.6588 14.768 21.5735 14.256C21.5735 13.6587 21.5735 13.0187 21.5735 12.336C21.5735 11.312 21.7868 10.16 22.2135 8.88C22.7255 7.51466 23.4508 6.27733 24.3895 5.168C25.4135 3.97333 26.6935 2.992 28.2295 2.224C29.8508 1.37066 31.7708 0.943993 33.9895 0.943993C35.7815 0.943993 37.4882 1.24266 39.1095 1.84C40.7308 2.43733 42.1388 3.29066 43.3335 4.39999C44.5282 5.50933 45.4668 6.832 46.1495 8.368C46.9175 9.81866 47.3015 11.44 47.3015 13.232Z" fill="black"/>
</svg>
