<svg width="47" height="94" viewBox="0 0 47 94" fill="none" xmlns="http://www.w3.org/2000/svg">
<path d="M18.582 94H17.302C15.0833 94 12.95 93.7867 10.902 93.36C8.854 92.9333 7.01933 92.1653 5.398 91.056C3.862 89.9467 2.582 88.4107 1.558 86.448C0.619334 84.4853 0.15 81.9253 0.15 78.768V16.432C0.15 13.36 0.619334 10.8427 1.558 8.88C2.49667 6.91733 3.734 5.38133 5.27 4.272C6.806 3.07733 8.55533 2.26666 10.518 1.84C12.4807 1.328 14.486 1.072 16.534 1.072H18.582V94ZM21.27 40.752H32.662C32.662 42.7147 32.4913 44.5067 32.15 46.128C31.894 47.7493 31.3393 49.2 30.486 50.48C29.718 51.6747 28.6513 52.6133 27.286 53.296C25.9207 53.9787 24.1713 54.32 22.038 54.32H21.27V40.752ZM46.614 13.232C46.614 15.9627 46.102 18.1387 45.078 19.76C44.054 21.3813 42.8167 22.6613 41.366 23.6C39.9153 24.5387 38.3793 25.1787 36.758 25.52C35.1367 25.776 33.7287 25.904 32.534 25.904C31.51 25.904 30.6567 25.8187 29.974 25.648V19.76C29.974 18.224 29.59 16.9867 28.822 16.048C28.054 15.024 26.9447 14.512 25.494 14.512C23.8727 14.512 22.5073 15.024 21.398 16.048C21.142 15.3653 20.9713 14.768 20.886 14.256C20.886 13.6587 20.886 13.0187 20.886 12.336C20.886 11.1413 21.0993 9.86133 21.526 8.49599C22.038 7.13066 22.7633 5.89333 23.702 4.784C24.726 3.67466 26.006 2.77866 27.542 2.09599C29.1633 1.32799 31.0833 0.943993 33.302 0.943993C35.094 0.943993 36.8007 1.24266 38.422 1.84C40.0433 2.43733 41.4513 3.29066 42.646 4.39999C43.8407 5.50933 44.7793 6.832 45.462 8.368C46.23 9.81866 46.614 11.44 46.614 13.232Z" fill="black"/>
</svg>
