<svg width="22" height="96" viewBox="0 0 22 96" fill="none" xmlns="http://www.w3.org/2000/svg">
<path d="M0.87 11.264C0.87 8.36266 1.894 5.93066 3.942 3.96799C5.99 1.92 8.422 0.895996 11.238 0.895996C14.054 0.895996 16.4433 1.92 18.406 3.96799C20.454 5.93066 21.478 8.36266 21.478 11.264C21.478 14.1653 20.454 16.5973 18.406 18.56C16.4433 20.5227 14.054 21.504 11.238 21.504C8.422 21.504 5.99 20.5227 3.942 18.56C1.894 16.5973 0.87 14.1653 0.87 11.264ZM2.79 30.976H4.198C8.63533 30.976 12.3473 32.1707 15.334 34.56C18.406 36.9493 19.942 40.7467 19.942 45.952V96H19.174C17.2113 96 15.2487 95.744 13.286 95.232C11.4087 94.72 9.65933 93.9093 8.038 92.8C6.502 91.6053 5.222 90.112 4.198 88.32C3.25933 86.4427 2.79 84.1387 2.79 81.408V30.976Z" fill="black"/>
</svg>
