<svg width="46" height="93" viewBox="0 0 46 93" fill="none" xmlns="http://www.w3.org/2000/svg">
<path d="M0.2275 0.0719986H2.2755C4.3235 0.0719986 6.32883 0.327998 8.2915 0.839996C10.2542 1.26666 12.0035 2.07733 13.5395 3.272C15.0755 4.38133 16.3128 5.91733 17.2515 7.88C18.1902 9.84266 18.6595 12.36 18.6595 15.432V77.768C18.6595 80.9253 18.1475 83.4853 17.1235 85.448C16.1848 87.4107 14.9048 88.9467 13.2835 90.056C11.7475 91.1653 9.91283 91.9333 7.7795 92.36C5.7315 92.7867 3.64083 93 1.5075 93H0.2275V0.0719986ZM44.0035 93H42.7235C40.5048 93 38.2862 92.7867 36.0675 92.36C33.9342 91.9333 31.9715 91.1653 30.1795 90.056C28.4728 88.9467 27.0648 87.4107 25.9555 85.448C24.8462 83.4853 24.2915 80.9253 24.2915 77.768V46.792H26.3395C28.4728 46.792 30.6062 47.048 32.7395 47.56C34.8728 47.9867 36.7502 48.7973 38.3715 49.992C40.0782 51.1013 41.4435 52.6373 42.4675 54.6C43.4915 56.5627 44.0035 59.08 44.0035 62.152V93ZM45.2835 28.104C45.2835 33.224 44.2168 37.4053 42.0835 40.648C39.9502 43.8053 36.5368 45.384 31.8435 45.384C30.1368 45.384 28.6008 45.128 27.2355 44.616C25.8702 44.0187 24.7182 43.2933 23.7795 42.44C22.8408 41.5867 22.1155 40.6053 21.6035 39.496C21.0915 38.3867 20.8355 37.32 20.8355 36.296C20.8355 35.272 20.8782 34.4613 20.9635 33.864C21.0488 33.2667 21.1342 32.7547 21.2195 32.328C21.6462 32.84 22.0302 33.224 22.3715 33.48C22.7982 33.736 23.3528 33.864 24.0355 33.864C25.2302 33.7787 25.9555 33.3093 26.2115 32.456C26.4675 31.5173 26.5955 30.408 26.5955 29.128V0.199997H28.2595C30.0515 0.199997 31.9288 0.370664 33.8915 0.711998C35.8542 1.05333 37.6888 1.77866 39.3955 2.88799C41.1022 3.91199 42.5102 5.49066 43.6195 7.62399C44.7288 9.672 45.2835 12.4453 45.2835 15.944V28.104Z" fill="black"/>
</svg>
