<svg width="47" height="98" viewBox="0 0 47 98" fill="none" xmlns="http://www.w3.org/2000/svg">
<path d="M17.4745 46.032C17.4745 47.056 17.5172 48.0373 17.6025 48.976C17.7732 49.9147 18.0292 50.768 18.3705 51.536C18.7972 52.2187 19.3518 52.816 20.0345 53.328C20.8025 53.7547 21.8265 53.968 23.1065 53.968C23.7892 53.968 24.4718 53.8827 25.1545 53.712C25.9225 53.456 26.6052 53.072 27.2025 52.56C27.5438 53.2427 27.7145 53.9253 27.7145 54.608C27.7998 55.2053 27.8425 55.8453 27.8425 56.528C27.8425 59.2587 26.6905 61.52 24.3865 63.312C22.1678 65.104 19.4372 66 16.1945 66C11.0745 66 7.14917 64.6347 4.4185 61.904C1.68783 59.1733 0.3225 55.76 0.3225 51.664V16.08C0.3225 13.264 0.8345 10.9173 1.8585 9.04C2.96783 7.07733 4.33317 5.49866 5.9545 4.304C7.66117 3.10933 9.49583 2.256 11.4585 1.744C13.5065 1.232 15.5118 0.975998 17.4745 0.975998V46.032ZM46.6585 82.768C46.6585 85.7547 46.1038 88.1867 44.9945 90.064C43.9705 92.0267 42.6052 93.5627 40.8985 94.672C39.2772 95.8667 37.4425 96.6773 35.3945 97.104C33.3465 97.616 31.3838 97.872 29.5065 97.872V20.944C29.5065 19.92 29.4212 18.9387 29.2505 18C29.1652 17.0613 28.9092 16.2507 28.4825 15.568C28.1412 14.8 27.5865 14.2027 26.8185 13.776C26.1358 13.264 25.1545 13.008 23.8745 13.008C23.1918 13.008 22.4665 13.136 21.6985 13.392C21.0158 13.5627 20.3758 13.904 19.7785 14.416C19.4372 13.7333 19.2238 13.0933 19.1385 12.496C19.1385 11.8133 19.1385 11.1307 19.1385 10.448C19.1385 7.71733 20.2478 5.456 22.4665 3.664C24.6852 1.872 27.4585 0.975998 30.7865 0.975998C35.9065 0.975998 39.8318 2.29866 42.5625 4.944C45.2932 7.504 46.6585 11.216 46.6585 16.08V82.768Z" fill="black"/>
</svg>
