<svg width="49" height="94" viewBox="0 0 49 94" fill="none" xmlns="http://www.w3.org/2000/svg">
<path d="M18.5195 78.64C18.5195 81.6267 17.9222 84.1013 16.7275 86.064C15.5328 88.0267 14.0395 89.6053 12.2475 90.8C10.4555 91.9093 8.45017 92.72 6.2315 93.232C4.09817 93.744 2.05017 94 0.0875001 94V19.632C0.0875001 13.6587 1.45283 9.05066 4.1835 5.808C6.91417 2.56533 10.8395 0.943993 15.9595 0.943993C18.5195 0.943993 20.6102 1.37066 22.2315 2.224C23.8528 3.07733 25.0902 4.18666 25.9435 5.55199C26.8822 6.91733 27.5222 8.41066 27.8635 10.032C28.2048 11.568 28.3755 13.0613 28.3755 14.512C28.3755 15.28 28.2902 15.8347 28.1195 16.176C27.0102 15.2373 25.6875 14.768 24.1515 14.768C22.8715 14.768 21.8475 15.024 21.0795 15.536C20.3968 15.9627 19.8422 16.56 19.4155 17.328C19.0742 18.0107 18.8182 18.8213 18.6475 19.76C18.5622 20.6987 18.5195 21.68 18.5195 22.704V78.64ZM29.7835 1.2H31.4475C36.3115 1.2 40.3222 2.736 43.4795 5.808C46.6368 8.79466 48.2155 13.1467 48.2155 18.864V32.304C48.2155 37.936 46.8075 42.2027 43.9915 45.104C41.2608 48.0053 37.9328 49.5413 34.0075 49.712H33.1115C30.7222 49.712 28.7168 49.2853 27.0955 48.432C25.4742 47.5787 24.1515 46.512 23.1275 45.232C22.1888 43.8667 21.5062 42.416 21.0795 40.88C20.6528 39.2587 20.4395 37.68 20.4395 36.144C21.0368 36.656 21.5915 37.04 22.1035 37.296C22.6155 37.4667 23.6395 37.552 25.1755 37.552C26.2848 37.552 27.1382 37.2533 27.7355 36.656C28.4182 35.9733 28.8875 35.1627 29.1435 34.224C29.4848 33.2853 29.6555 32.2613 29.6555 31.152C29.7408 29.9573 29.7835 28.8907 29.7835 27.952V1.2ZM46.1675 94H44.8875C42.6688 94 40.4502 93.7867 38.2315 93.36C36.0982 92.9333 34.1355 92.1653 32.3435 91.056C30.6368 89.9467 29.2288 88.4107 28.1195 86.448C27.0102 84.4853 26.4555 81.9253 26.4555 78.768V51.632H28.5035C30.6368 51.632 32.7702 51.888 34.9035 52.4C37.0368 52.8267 38.9142 53.6373 40.5355 54.832C42.2422 55.9413 43.6075 57.4773 44.6315 59.44C45.6555 61.4027 46.1675 63.92 46.1675 66.992V94Z" fill="black"/>
</svg>
