<svg width="47" height="67" viewBox="0 0 47 67" fill="none" xmlns="http://www.w3.org/2000/svg">
<path d="M18.0695 35H16.9175C14.9548 35 12.9922 34.7867 11.0295 34.36C9.15217 33.848 7.4455 33.0373 5.9095 31.928C4.45883 30.7333 3.26417 29.1973 2.3255 27.32C1.38683 25.4427 0.9175 23.1387 0.9175 20.408V17.08C0.9175 14.008 1.4295 11.4907 2.4535 9.528C3.4775 7.56533 4.80017 6.02933 6.4215 4.92C8.04283 3.81066 9.8775 3.04266 11.9255 2.616C13.9735 2.18933 16.0215 1.976 18.0695 1.976V35ZM28.9495 33.976H30.1015C32.0642 33.976 33.9842 34.232 35.8615 34.744C37.8242 35.1707 39.5308 35.9813 40.9815 37.176C42.5175 38.2853 43.7548 39.7787 44.6935 41.656C45.6322 43.5333 46.1015 45.8373 46.1015 48.568V51.896C46.1015 54.968 45.5895 57.4853 44.5655 59.448C43.5415 61.4107 42.2188 62.9467 40.5975 64.056C38.9762 65.1653 37.1415 65.9333 35.0935 66.36C33.0455 66.7867 30.9975 67 28.9495 67V33.976ZM45.5895 13.24C45.5895 15.9707 45.0775 18.1467 44.0535 19.768C43.0295 21.3893 41.7922 22.6693 40.3415 23.608C38.8908 24.5467 37.3548 25.1867 35.7335 25.528C34.1122 25.784 32.7042 25.912 31.5095 25.912C30.4855 25.912 29.6322 25.8267 28.9495 25.656V19.768C28.9495 17.976 28.5228 16.6533 27.6695 15.8C26.8162 14.9467 25.7495 14.52 24.4695 14.52C22.8482 14.52 21.4828 15.032 20.3735 16.056C20.1175 15.3733 19.9468 14.776 19.8615 14.264C19.8615 13.6667 19.8615 13.0267 19.8615 12.344C19.8615 11.32 20.0322 10.168 20.3735 8.888C20.7148 7.52266 21.3548 6.28533 22.2935 5.176C23.2322 3.98133 24.5122 3 26.1335 2.23199C27.7548 1.37866 29.8028 0.951996 32.2775 0.951996C34.5815 0.951996 36.5442 1.336 38.1655 2.104C39.8722 2.78666 41.2375 3.72533 42.2615 4.92C43.3708 6.11466 44.1815 7.43733 44.6935 8.888C45.2908 10.3387 45.5895 11.7893 45.5895 13.24ZM1.5575 54.712C1.5575 52.0667 2.0695 49.9333 3.0935 48.312C4.1175 46.6053 5.35483 45.2827 6.8055 44.344C8.25617 43.4053 9.79217 42.808 11.4135 42.552C13.0348 42.2107 14.4428 42.04 15.6375 42.04C16.6615 42.04 17.5148 42.1253 18.1975 42.296V48.184C18.1975 49.976 18.6242 51.2987 19.4775 52.152C20.3308 53.0053 21.3975 53.432 22.6775 53.432C24.2135 53.432 25.5788 52.92 26.7735 51.896C27.0295 52.5787 27.1575 53.2187 27.1575 53.816C27.2428 54.328 27.2855 54.9253 27.2855 55.608C27.2855 56.632 27.0722 57.8267 26.6455 59.192C26.3042 60.472 25.6215 61.7093 24.5975 62.904C23.6588 64.0133 22.3788 64.9947 20.7575 65.848C19.2215 66.616 17.2588 67 14.8695 67C12.5655 67 10.5602 66.6587 8.8535 65.976C7.23217 65.208 5.86683 64.2267 4.7575 63.032C3.7335 61.8373 2.92283 60.5147 2.3255 59.064C1.8135 57.6133 1.5575 56.1627 1.5575 54.712Z" fill="black"/>
</svg>
