<svg width="75" height="93" viewBox="0 0 75 93" fill="none" xmlns="http://www.w3.org/2000/svg">
<path d="M46.6575 93H45.3775C43.1588 93 41.0255 92.7867 38.9775 92.36C36.9295 91.9333 35.0948 91.1653 33.4735 90.056C31.9375 88.9467 30.6575 87.4107 29.6335 85.448C28.6948 83.4853 28.2255 80.9253 28.2255 77.768V0.0719986H30.2735C32.3215 0.0719986 34.3268 0.327998 36.2895 0.839996C38.2522 1.26666 40.0015 2.07733 41.5375 3.272C43.0735 4.38133 44.3108 5.91733 45.2495 7.88C46.1882 9.84266 46.6575 12.36 46.6575 15.432V93ZM0.5775 12.744C0.5775 11.2933 0.8335 9.84266 1.3455 8.392C1.8575 6.94133 2.66817 5.61866 3.7775 4.424C4.88683 3.22933 6.25217 2.29066 7.8735 1.60799C9.49483 0.839994 11.4148 0.455994 13.6335 0.455994C15.9375 0.455994 17.9002 0.88266 19.5215 1.73599C21.1428 2.50399 22.4228 3.48533 23.3615 4.67999C24.3855 5.78933 25.1108 7.02666 25.5375 8.392C26.0495 9.672 26.3055 10.824 26.3055 11.848C26.3055 12.5307 26.2628 13.1707 26.1775 13.768C26.1775 14.28 26.0495 14.8773 25.7935 15.56C24.5988 14.536 23.2335 14.024 21.6975 14.024C20.4175 14.024 19.3508 14.4507 18.4975 15.304C17.6442 16.072 17.2175 17.2667 17.2175 18.888V25.16C16.5348 25.3307 15.6815 25.416 14.6575 25.416C13.4628 25.416 12.0548 25.288 10.4335 25.032C8.81217 24.6907 7.27617 24.0507 5.8255 23.112C4.37483 22.1733 3.1375 20.8933 2.1135 19.272C1.0895 17.6507 0.5775 15.4747 0.5775 12.744ZM74.4335 12.744C74.4335 15.4747 73.9215 17.6507 72.8975 19.272C71.8735 20.8933 70.6362 22.1733 69.1855 23.112C67.7348 24.0507 66.1988 24.6907 64.5775 25.032C62.9562 25.288 61.5482 25.416 60.3535 25.416C59.3295 25.416 58.4762 25.3307 57.7935 25.16V19.272C57.7935 17.48 57.3668 16.1573 56.5135 15.304C55.6602 14.4507 54.5935 14.024 53.3135 14.024C51.6922 14.024 50.3268 14.536 49.2175 15.56C48.9615 14.8773 48.7908 14.28 48.7055 13.768C48.7055 13.1707 48.7055 12.5307 48.7055 11.848C48.7055 10.824 48.9188 9.672 49.3455 8.392C49.8575 7.02666 50.5828 5.78933 51.5215 4.67999C52.5455 3.48533 53.8255 2.50399 55.3615 1.73599C56.9828 0.88266 58.9028 0.455994 61.1215 0.455994C63.4255 0.455994 65.3882 0.839994 67.0095 1.60799C68.7162 2.37599 70.0815 3.35733 71.1055 4.55199C72.2148 5.66133 73.0255 6.984 73.5375 8.52C74.1348 9.97066 74.4335 11.3787 74.4335 12.744Z" fill="black"/>
</svg>
