<svg width="47" height="65" viewBox="0 0 47 65" fill="none" xmlns="http://www.w3.org/2000/svg">
<path d="M17.4745 44.776C17.4745 45.8 17.5172 46.7813 17.6025 47.72C17.7732 48.6587 18.0292 49.512 18.3705 50.28C18.7972 50.9627 19.3518 51.56 20.0345 52.072C20.8025 52.4987 21.8265 52.712 23.1065 52.712C23.7892 52.712 24.4718 52.6267 25.1545 52.456C25.9225 52.2 26.6052 51.816 27.2025 51.304C27.5438 51.9867 27.7572 52.6693 27.8425 53.352C27.9278 53.9493 27.9705 54.5893 27.9705 55.272C27.9705 58.0027 26.8612 60.3067 24.6425 62.184C22.4238 64.0613 19.3945 65 15.5545 65C10.9465 65 7.2345 63.6347 4.4185 60.904C1.68783 58.1733 0.3225 53.992 0.3225 48.36V0.103996H1.0905C6.2105 0.103996 10.2212 1.34133 13.1225 3.816C16.0238 6.20533 17.4745 10.088 17.4745 15.464V44.776ZM46.6585 64.744H45.2505C40.8132 64.744 37.0585 63.592 33.9865 61.288C30.9998 58.8987 29.5065 55.0587 29.5065 49.768V0.103996H30.2745C32.1518 0.103996 34.0718 0.359996 36.0345 0.871994C37.9972 1.384 39.7465 2.23733 41.2825 3.432C42.9038 4.54133 44.1838 6.03466 45.1225 7.912C46.1465 9.78933 46.6585 12.0507 46.6585 14.696V64.744Z" fill="black"/>
</svg>
